<svg width="1080" height="1080" viewBox="0 0 1080 1080" fill="none" xmlns="http://www.w3.org/2000/svg">
<path d="M206.25 909.271L193.721 922.292V956.922H180.208V854.441H193.721V905.118L239.26 854.441H255.589L215.259 899.699L258.757 956.922H242.568L206.25 909.271ZM315.557 956.922C314.806 955.42 314.196 952.745 313.727 948.898C307.674 955.185 300.448 958.329 292.049 958.329C284.541 958.329 278.371 956.218 273.538 951.995C268.751 947.725 266.358 942.328 266.358 935.806C266.358 927.876 269.361 921.729 275.368 917.365C281.421 912.955 289.914 910.749 300.847 910.749H313.516V904.766C313.516 900.215 312.155 896.602 309.434 893.927C306.712 891.206 302.7 889.845 297.398 889.845C292.753 889.845 288.858 891.018 285.714 893.364C282.57 895.71 280.998 898.549 280.998 901.881H267.907C267.907 898.08 269.244 894.42 271.919 890.901C274.64 887.335 278.3 884.519 282.899 882.455C287.544 880.39 292.635 879.358 298.172 879.358C306.947 879.358 313.821 881.563 318.795 885.974C323.769 890.338 326.35 896.367 326.537 904.063V939.114C326.537 946.106 327.429 951.666 329.212 955.795V956.922H315.557ZM293.949 946.997C298.031 946.997 301.903 945.942 305.563 943.83C309.223 941.718 311.874 938.973 313.516 935.595V919.97H303.31C287.356 919.97 279.38 924.638 279.38 933.976C279.38 938.058 280.74 941.249 283.462 943.548C286.183 945.848 289.679 946.997 293.949 946.997ZM383.76 892.449C381.789 892.121 379.654 891.956 377.355 891.956C368.815 891.956 363.02 895.593 359.97 902.866V956.922H346.949V880.765H359.618L359.829 889.563C364.099 882.76 370.152 879.358 377.988 879.358C380.522 879.358 382.446 879.686 383.76 880.343V892.449ZM439.997 956.922C439.247 955.42 438.637 952.745 438.167 948.898C432.114 955.185 424.888 958.329 416.489 958.329C408.981 958.329 402.811 956.218 397.978 951.995C393.192 947.725 390.798 942.328 390.798 935.806C390.798 927.876 393.802 921.729 399.808 917.365C405.861 912.955 414.354 910.749 425.287 910.749H437.956V904.766C437.956 900.215 436.595 896.602 433.874 893.927C431.152 891.206 427.14 889.845 421.838 889.845C417.193 889.845 413.298 891.018 410.154 893.364C407.01 895.71 405.438 898.549 405.438 901.881H392.347C392.347 898.08 393.684 894.42 396.359 890.901C399.08 887.335 402.74 884.519 407.339 882.455C411.984 880.39 417.075 879.358 422.612 879.358C431.387 879.358 438.261 881.563 443.235 885.974C448.209 890.338 450.79 896.367 450.977 904.063V939.114C450.977 946.106 451.869 951.666 453.652 955.795V956.922H439.997ZM418.389 946.997C422.472 946.997 426.343 945.942 430.003 943.83C433.663 941.718 436.314 938.973 437.956 935.595V919.97H427.75C411.797 919.97 403.82 924.638 403.82 933.976C403.82 938.058 405.18 941.249 407.902 943.548C410.623 945.848 414.119 946.997 418.389 946.997ZM483.706 880.765L484.128 890.338C489.947 883.018 497.548 879.358 506.933 879.358C523.028 879.358 531.145 888.437 531.286 906.596V956.922H518.265V906.526C518.218 901.036 516.951 896.977 514.464 894.35C512.024 891.722 508.2 890.408 502.992 890.408C498.768 890.408 495.062 891.534 491.871 893.786C488.68 896.039 486.193 898.995 484.41 902.655V956.922H471.389V880.765H483.706ZM568.59 862.325V880.765H582.808V890.83H568.59V938.058C568.59 941.108 569.224 943.408 570.49 944.956C571.757 946.458 573.916 947.208 576.966 947.208C578.467 947.208 580.532 946.927 583.16 946.364V956.922C579.734 957.86 576.403 958.329 573.165 958.329C567.347 958.329 562.959 956.57 560.003 953.05C557.047 949.531 555.569 944.534 555.569 938.058V890.83H541.703V880.765H555.569V862.325H568.59ZM612.229 956.922H599.207V880.765H612.229V956.922ZM598.152 860.565C598.152 858.453 598.785 856.67 600.052 855.216C601.366 853.761 603.29 853.034 605.824 853.034C608.357 853.034 610.281 853.761 611.595 855.216C612.909 856.67 613.566 858.453 613.566 860.565C613.566 862.676 612.909 864.436 611.595 865.844C610.281 867.251 608.357 867.955 605.824 867.955C603.29 867.955 601.366 867.251 600.052 865.844C598.785 864.436 598.152 862.676 598.152 860.565ZM645.45 880.765L645.872 890.338C651.691 883.018 659.292 879.358 668.677 879.358C684.772 879.358 692.889 888.437 693.03 906.596V956.922H680.009V906.526C679.962 901.036 678.695 896.977 676.208 894.35C673.768 891.722 669.944 890.408 664.736 890.408C660.512 890.408 656.806 891.534 653.615 893.786C650.424 896.039 647.937 898.995 646.154 902.655V956.922H633.133V880.765H645.45ZM759.684 956.922C758.934 955.42 758.324 952.745 757.854 948.898C751.801 955.185 744.575 958.329 736.176 958.329C728.668 958.329 722.498 956.218 717.665 951.995C712.879 947.725 710.486 942.328 710.486 935.806C710.486 927.876 713.489 921.729 719.495 917.365C725.548 912.955 734.041 910.749 744.974 910.749H757.643V904.766C757.643 900.215 756.283 896.602 753.561 893.927C750.839 891.206 746.828 889.845 741.525 889.845C736.88 889.845 732.985 891.018 729.841 893.364C726.698 895.71 725.126 898.549 725.126 901.881H712.034C712.034 898.08 713.371 894.42 716.046 890.901C718.768 887.335 722.428 884.519 727.026 882.455C731.671 880.39 736.763 879.358 742.299 879.358C751.074 879.358 757.948 881.563 762.922 885.974C767.896 890.338 770.477 896.367 770.664 904.063V939.114C770.664 946.106 771.556 951.666 773.339 955.795V956.922H759.684ZM738.076 946.997C742.159 946.997 746.03 945.942 749.69 943.83C753.35 941.718 756.001 938.973 757.643 935.595V919.97H747.438C731.484 919.97 723.507 924.638 723.507 933.976C723.507 938.058 724.868 941.249 727.589 943.548C730.311 945.848 733.806 946.997 738.076 946.997ZM807.616 956.922H794.103V854.441H807.616V956.922ZM842.668 880.765L843.09 890.338C848.909 883.018 856.51 879.358 865.895 879.358C881.99 879.358 890.107 888.437 890.248 906.596V956.922H877.227V906.526C877.18 901.036 875.913 896.977 873.426 894.35C870.986 891.722 867.162 890.408 861.953 890.408C857.73 890.408 854.023 891.534 850.833 893.786C847.642 896.039 845.155 898.995 843.372 902.655V956.922H830.351V880.765H842.668Z" fill="#76C043"/>
<path d="M812.3 318.5H700.4L682.2 346.8C681.9 347.2 681.7 347.6 681.5 348C681.5 348.1 681.4 348.2 681.4 348.3C681.2 348.7 681 349.1 680.9 349.5C680.7 350 680.6 350.5 680.5 350.9V351C680.4 351.5 680.3 352 680.3 352.5C680.2 353.3 680.2 354.1 680.3 354.9C680.6 358.6 680.4 362.3 679.7 366C679.6 366.5 679.5 367 679.4 367.4L674.4 388.2L664 416.9C663.4 418.6 662.7 420.2 662 421.8L654.8 437.6C653.5 440.4 651.4 442.8 648.6 444.3C646.9 445.3 644.7 444.8 643.5 443.2C642.1 441.2 641.6 438.7 642.2 436.4L647 418.9L636.1 444.9C634.9 447.8 633.3 450.5 631.4 453C628.6 456.6 623 455.9 621.2 451.7L621.1 451.5L620.5 452.8C620.3 453.2 620.1 453.6 619.9 453.9C619.6 454.5 619.2 455.1 618.8 455.6C618.5 456 618.2 456.3 617.9 456.7C617 457.7 616 458.7 614.9 459.5C614.6 459.7 614.2 460 613.8 460.2C613.6 460.3 613.4 460.4 613.2 460.5C613.1 460.5 613.1 460.5 613 460.6C612.8 460.7 612.7 460.7 612.5 460.8C612.4 460.8 612.4 460.8 612.3 460.9C612.1 461 611.9 461 611.7 461C611.5 461 611.3 461 611 461C611 461 611 461 610.9 461C610.7 461 610.5 461 610.3 461C610.3 461 610.3 461 610.2 461C608.6 460.8 607 459.8 606.2 458.2C605 455.9 604.7 453.3 605.3 450.8L610.1 432.1C610.1 432.1 610 432.3 609.9 432.5C609.8 432.6 609.7 432.8 609.6 433C609.4 433.4 609.1 434 608.8 434.7C608.7 435 608.5 435.3 608.4 435.6C606.2 440.3 602.3 448.3 600.1 452.9C599 455.1 597.2 456.9 595 457.8L594.9 457.9C591.7 459.3 588 457.7 586.9 454.4L586.8 454.1C586 451.7 586.2 449.1 587.3 446.8L596.1 430C597.2 427.9 598.1 425.8 598.8 423.6L604.2 407.1C604.2 407.1 604.3 405.4 604.5 402.7C604.5 402.4 604.5 402 604.6 401.7C604.9 397 605.4 390 605.8 384.4C605.8 384.1 605.8 383.7 605.8 383.4C605.8 381.6 605.6 379.9 605.1 378.2C605 378 605 377.8 604.9 377.6C604.6 376.5 604.1 375.5 603.6 374.5C603 373.3 602.3 372.2 601.4 371.2C601.2 370.9 600.9 370.7 600.7 370.4C600.2 369.9 599.7 369.4 599.1 368.9L599 368.8C597.2 367.3 594.8 366.6 592.5 366.9C591.7 367 591 367.2 590.2 367.4L588.2 368.2L581.4 370.8C574.3 373.5 566.3 372.8 559.8 368.9C557.7 367.7 556.1 365.8 555.2 363.5C553.5 359.4 556 354.8 560.3 354L571.9 351.6C579.7 350 587.2 347.2 594.1 343.2L610.7 333.8C616.1 330.7 622.1 328.9 628.3 328.5C628.8 328.5 629.3 328.4 629.9 328.3C630.4 328.2 630.9 328.1 631.4 327.9C631.4 327.9 631.4 327.9 631.5 327.9C632 327.8 632.5 327.6 632.9 327.4C632.9 327.4 632.9 327.4 633 327.4C633.9 327 634.8 326.5 635.7 325.9C636.1 325.6 636.5 325.3 636.8 325L636.9 324.9C637.2 324.6 637.6 324.2 637.9 323.9C637.9 323.8 638 323.8 638 323.7C638.3 323.3 638.6 323 638.8 322.6C638.8 322.5 638.9 322.5 638.9 322.4C639.2 322 639.4 321.6 639.7 321.1L661.9 278.5V165.6C661.9 126.9 630.6 95.6 591.9 95.6H497.3C458.6 95.6 427.3 126.9 427.3 165.6V318.5H418.8L432 343.5L470.9 364.2L490.8 387.5L540.9 393.5L555.6 428.9V461.7L582.4 493.7L616.9 511.8L662 553.1V553H812C850.7 553 882 521.7 882 483V388.4C882.3 349.8 850.9 318.5 812.3 318.5Z" fill="url(#paint0_linear)"/>
<path d="M565.4 504.1L538.6 472.1V439.3L523.9 404L473.8 398L454 374.6L415.1 353.9L401.9 328.9H254.6C215.9 328.9 184.6 360.2 184.6 398.9V493.5C184.6 532.2 215.9 563.5 254.6 563.5H376.2L387.6 552.4C389.8 550 390.6 546.9 391.8 543.9C399.3 525.3 420.2 497.2 421.4 495.6L421.7 495.2C423.6 492.5 427.5 486.3 430.3 482.1C431.5 480.3 432.9 478.7 434.5 477.3L442.4 470.1L448.8 461.3C450.1 459.5 451.3 457.6 452.5 455.7L463 437.7L469.2 424.8C469.3 424.6 469.4 424.4 469.5 424.3C469.5 424.2 469.6 424.2 469.6 424.1C469.7 424 469.8 423.9 469.9 423.8C471.6 422 474.8 422.3 476.1 424.8L476.6 425.9C478 428.7 478.5 431.2 478.2 433.8L482.6 428.1L486.4 423.2C486.5 423 486.7 422.9 486.8 422.7C486.9 422.7 486.9 422.6 487 422.6C487.1 422.5 487.2 422.4 487.3 422.3C487.3 422.3 487.3 422.3 487.4 422.3C489.6 420.8 492.9 421.8 493.7 424.7L494 425.9C495.5 431.4 494.2 435.4 491 440.3L487.5 444.9L493.9 440.7L494.1 440.5C496.3 438.7 499.7 439.7 500.1 442.6L500.2 443.7C500.7 448 499.5 452.4 497 455.9C496.7 456.3 496.4 456.8 496 457.2L489.2 462.7C489.3 462.8 489.4 462.8 489.5 462.9C489.6 462.9 489.7 463 489.7 463.1C489.8 463.2 489.9 463.2 490 463.3L490.1 463.4C490.3 463.6 490.6 463.9 490.7 464.3V464.4C490.8 464.5 490.8 464.7 490.8 464.8V464.9C490.8 465.1 490.9 465.3 490.9 465.5V466.5C491 470.8 489.3 474.9 486.2 477.8L467.2 495.6C466.8 497.5 465.9 499.3 464.6 500.8C462.6 503 460.9 505.5 459.6 508.1L455 517.9L451 526.4C450.5 527.4 450.3 528.8 450.4 530.3C450.4 530.9 450.5 531.6 450.6 532.2C450.7 532.5 450.7 532.9 450.8 533.2C451 533.9 451.2 534.5 451.4 535.1C451.6 535.7 451.9 536.3 452.3 536.9C452.6 537.5 453 538 453.4 538.5C453.8 539 454.3 539.4 454.7 539.8C455.1 540.1 455.5 540.3 455.8 540.5C456.6 540.9 457.4 541.3 458.3 541.5C459.9 542 461.6 542.1 463.3 541.8C464.3 541.6 465 541.4 465.5 541.3C465.9 541.2 466.1 541.2 466 541.2C470.3 540.1 474.7 539.4 479.7 540.4C482.5 540.9 484.8 543 485.7 545.7C485.7 545.8 485.8 546 485.8 546.1C486.6 548.4 485 550.9 482.6 551.2C475.5 552.1 462.4 554.6 456 560.7C449 567.3 439.4 566.9 434.9 568.6C429.1 570.8 423.9 574.5 420.1 579.4L410.4 593.3V716.6C410.4 755.3 441.7 786.6 480.4 786.6H575C613.7 786.6 645 755.3 645 716.6V563.5L599.9 522.2L565.4 504.1Z" fill="url(#paint1_linear)"/>
<defs>
<linearGradient id="paint0_linear" x1="534.089" y1="445.219" x2="752.489" y2="226.819" gradientUnits="userSpaceOnUse">
<stop stop-color="#39B54A"/>
<stop offset="1" stop-color="#F9ED32"/>
</linearGradient>
<linearGradient id="paint1_linear" x1="317.257" y1="655.142" x2="546.18" y2="426.219" gradientUnits="userSpaceOnUse">
<stop offset="0.00673452" stop-color="#27AAE1"/>
<stop offset="0.7121" stop-color="#39B54A"/>
</linearGradient>
</defs>
</svg>
